<svg xmlns="http://www.w3.org/2000/svg" viewBox="0 0 128 128" role="img" aria-labelledby="title">
  <title id="title">Harhub</title>
  <path
    fill="#2459b8"
    d="M22 16h22c5.523 0 10 4.477 10 10v12c0 6.627-3.373 12-8 12-4.418 0-8 3.582-8 8v12c0 4.418 3.582 8 8 8 4.627 0 8 5.373 8 12v12c0 5.523-4.477 10-10 10H22c-5.523 0-10-4.477-10-10V26c0-5.523 4.477-10 10-10Z"
  />
  <path
    fill="#343638"
    d="M106 16H84c-5.523 0-10 4.477-10 10v12c0 6.627 3.373 12 8 12 4.418 0 8 3.582 8 8v12c0 4.418-3.582 8-8 8-4.627 0-8 5.373-8 12v12c0 5.523 4.477 10 10 10h22c5.523 0 10-4.477 10-10V26c0-5.523-4.477-10-10-10Z"
  />
</svg>
